<?xml version="1.0" encoding="UTF-8" standalone="no"?><svg xmlns="http://www.w3.org/2000/svg" xmlns:xlink= "http://www.w3.org/1999/xlink" width="600" height="390" style="overflow: hidden;" aria-label="A chart."><defs id="_ABSTRACT_RENDERER_ID_161"><clipPath id="_ABSTRACT_RENDERER_ID_162"><rect x="115" y="75" width="371" height="241"></rect></clipPath></defs><rect x="0" y="0" width="600" height="390" stroke="none" stroke-width="0" fill="#ffffff"></rect><g><text text-anchor="start" x="115" y="52.05" font-family="Arial" font-size="13" font-weight="bold" stroke="none" stroke-width="0" fill="#000000">Elapsed time (10 000 000 iterations)</text><rect x="115" y="41" width="371" height="13" stroke="none" stroke-width="0" fill-opacity="0" fill="#ffffff"></rect></g><g><rect x="115" y="75" width="371" height="241" stroke="none" stroke-width="0" fill-opacity="0" fill="#ffffff"></rect><g clip-path="url(https://www.rapidtables.com/tools/bar-graph.html#_ABSTRACT_RENDERER_ID_162)"><g><rect x="115" y="315" width="371" height="1" stroke="none" stroke-width="0" fill="#cccccc"></rect><rect x="115" y="250" width="371" height="1" stroke="none" stroke-width="0" fill="#cccccc"></rect><rect x="115" y="197" width="371" height="1" stroke="none" stroke-width="0" fill="#cccccc"></rect><rect x="115" y="144" width="371" height="1" stroke="none" stroke-width="0" fill="#cccccc"></rect><rect x="115" y="114" width="371" height="1" stroke="none" stroke-width="0" fill="#cccccc"></rect><rect x="115" y="92" width="371" height="1" stroke="none" stroke-width="0" fill="#cccccc"></rect><rect x="115" y="75" width="371" height="1" stroke="none" stroke-width="0" fill="#cccccc"></rect><rect x="115" y="262" width="371" height="1" stroke="none" stroke-width="0" fill="#ebebeb"></rect><rect x="115" y="258" width="371" height="1" stroke="none" stroke-width="0" fill="#ebebeb"></rect><rect x="115" y="253" width="371" height="1" stroke="none" stroke-width="0" fill="#ebebeb"></rect><rect x="115" y="219" width="371" height="1" stroke="none" stroke-width="0" fill="#ebebeb"></rect><rect x="115" y="180" width="371" height="1" stroke="none" stroke-width="0" fill="#ebebeb"></rect><rect x="115" y="166" width="371" height="1" stroke="none" stroke-width="0" fill="#ebebeb"></rect><rect x="115" y="155" width="371" height="1" stroke="none" stroke-width="0" fill="#ebebeb"></rect><rect x="115" y="136" width="371" height="1" stroke="none" stroke-width="0" fill="#ebebeb"></rect><rect x="115" y="128" width="371" height="1" stroke="none" stroke-width="0" fill="#ebebeb"></rect><rect x="115" y="120" width="371" height="1" stroke="none" stroke-width="0" fill="#ebebeb"></rect><rect x="115" y="108" width="371" height="1" stroke="none" stroke-width="0" fill="#ebebeb"></rect><rect x="115" y="102" width="371" height="1" stroke="none" stroke-width="0" fill="#ebebeb"></rect><rect x="115" y="97" width="371" height="1" stroke="none" stroke-width="0" fill="#ebebeb"></rect><rect x="115" y="87" width="371" height="1" stroke="none" stroke-width="0" fill="#ebebeb"></rect><rect x="115" y="83" width="371" height="1" stroke="none" stroke-width="0" fill="#ebebeb"></rect><rect x="115" y="79" width="371" height="1" stroke="none" stroke-width="0" fill="#ebebeb"></rect></g><g><rect x="133" y="173" width="57" height="142" stroke="none" stroke-width="0" fill="#3584e4"></rect><rect x="226" y="84" width="57" height="231" stroke="none" stroke-width="0" fill="#3584e4"></rect><rect x="318" y="253" width="57" height="62" stroke="none" stroke-width="0" fill="#3584e4"></rect><rect x="411" y="197" width="57" height="118" stroke="none" stroke-width="0" fill="#3584e4"></rect></g><g><rect x="115" y="315" width="371" height="1" stroke="none" stroke-width="0" fill="#333333"></rect></g></g><g></g><g><g><text text-anchor="middle" x="161.75" y="335.05" font-family="Arial" font-size="13" stroke="none" stroke-width="0" fill="#222222">httppv1</text></g><g><text text-anchor="middle" x="254.25" y="335.05" font-family="Arial" font-size="13" stroke="none" stroke-width="0" fill="#222222">http-parser</text></g><g><text text-anchor="middle" x="346.75" y="335.05" font-family="Arial" font-size="13" stroke="none" stroke-width="0" fill="#222222">httppv2</text></g><g><text text-anchor="middle" x="439.25" y="335.05" font-family="Arial" font-size="13" stroke="none" stroke-width="0" fill="#222222">picohttpparser</text></g><g><text text-anchor="end" x="102" y="319.55" font-family="Arial" font-size="13" stroke="none" stroke-width="0" fill="#444444">0</text></g><g><text text-anchor="end" x="102" y="254.6046" font-family="Arial" font-size="13" stroke="none" stroke-width="0" fill="#444444">1</text></g><g><text text-anchor="end" x="102" y="202.0584" font-family="Arial" font-size="13" stroke="none" stroke-width="0" fill="#444444">2</text></g><g><text text-anchor="end" x="102" y="149.5123" font-family="Arial" font-size="13" stroke="none" stroke-width="0" fill="#444444">4</text></g><g><text text-anchor="end" x="102" y="118.7747" font-family="Arial" font-size="13" stroke="none" stroke-width="0" fill="#444444">6</text></g><g><text text-anchor="end" x="102" y="96.9661" font-family="Arial" font-size="13" stroke="none" stroke-width="0" fill="#444444">8</text></g><g><text text-anchor="end" x="102" y="80.05" font-family="Arial" font-size="13" stroke="none" stroke-width="0" fill="#444444">10</text></g></g></g><g><g><text text-anchor="middle" x="300.5" y="368.05" font-family="Arial" font-size="13" font-style="italic" stroke="none" stroke-width="0" fill="#222222">Parsers</text><rect x="115" y="357" width="371" height="13" stroke="none" stroke-width="0" fill-opacity="0" fill="#ffffff"></rect></g><g><text text-anchor="middle" x="48.55" y="195.5" font-family="Arial" font-size="13" font-style="italic" transform="rotate(-90 48.55 195.5)" stroke="none" stroke-width="0" fill="#222222">Requests</text><path d="M37.49999999999999,316L37.50000000000001,75L50.50000000000001,75L50.49999999999999,316Z" stroke="none" stroke-width="0" fill-opacity="0" fill="#ffffff"></path></g></g><g></g></svg>