<?xml version="1.0" encoding="UTF-8" standalone="no"?><svg xmlns="http://www.w3.org/2000/svg" xmlns:xlink= "http://www.w3.org/1999/xlink" width="600" height="390" style="overflow: hidden;" aria-label="A chart."><defs id="_ABSTRACT_RENDERER_ID_1072"><clipPath id="_ABSTRACT_RENDERER_ID_1073"><rect x="115" y="75" width="371" height="241"></rect></clipPath></defs><rect x="0" y="0" width="600" height="390" stroke="none" stroke-width="0" fill="#ffffff"></rect><g><text text-anchor="start" x="115" y="52.05" font-family="Arial" font-size="13" font-weight="bold" stroke="none" stroke-width="0" fill="#000000">Requests per second (-O3)</text><rect x="115" y="41" width="371" height="13" stroke="none" stroke-width="0" fill-opacity="0" fill="#ffffff"></rect></g><g><rect x="499" y="75" width="88" height="13" stroke="none" stroke-width="0" fill-opacity="0" fill="#ffffff"></rect><g><rect x="499" y="75" width="88" height="13" stroke="none" stroke-width="0" fill-opacity="0" fill="#ffffff"></rect><g><text text-anchor="start" x="530" y="86.05" font-family="Arial" font-size="13" stroke="none" stroke-width="0" fill="#222222">Average</text></g><rect x="499" y="75" width="26" height="13" stroke="none" stroke-width="0" fill="#1a5fb4"></rect></g></g><g><rect x="115" y="75" width="371" height="241" stroke="none" stroke-width="0" fill-opacity="0" fill="#ffffff"></rect><g clip-path="url(https://www.rapidtables.com/tools/bar-graph.html#_ABSTRACT_RENDERER_ID_1073)"><g><rect x="115" y="315" width="371" height="1" stroke="none" stroke-width="0" fill="#cccccc"></rect><rect x="115" y="267" width="371" height="1" stroke="none" stroke-width="0" fill="#cccccc"></rect><rect x="115" y="219" width="371" height="1" stroke="none" stroke-width="0" fill="#cccccc"></rect><rect x="115" y="171" width="371" height="1" stroke="none" stroke-width="0" fill="#cccccc"></rect><rect x="115" y="123" width="371" height="1" stroke="none" stroke-width="0" fill="#cccccc"></rect><rect x="115" y="75" width="371" height="1" stroke="none" stroke-width="0" fill="#cccccc"></rect><rect x="115" y="291" width="371" height="1" stroke="none" stroke-width="0" fill="#ebebeb"></rect><rect x="115" y="243" width="371" height="1" stroke="none" stroke-width="0" fill="#ebebeb"></rect><rect x="115" y="195" width="371" height="1" stroke="none" stroke-width="0" fill="#ebebeb"></rect><rect x="115" y="147" width="371" height="1" stroke="none" stroke-width="0" fill="#ebebeb"></rect><rect x="115" y="99" width="371" height="1" stroke="none" stroke-width="0" fill="#ebebeb"></rect></g><g><rect x="139" y="247" width="76" height="68" stroke="none" stroke-width="0" fill="#1a5fb4"></rect><rect x="262" y="103" width="77" height="212" stroke="none" stroke-width="0" fill="#1a5fb4"></rect><rect x="386" y="221" width="76" height="94" stroke="none" stroke-width="0" fill="#1a5fb4"></rect></g><g><rect x="115" y="315" width="371" height="1" stroke="none" stroke-width="0" fill="#333333"></rect></g></g><g></g><g><g><text text-anchor="middle" x="177.16666666666666" y="335.05" font-family="Arial" font-size="13" stroke="none" stroke-width="0" fill="#222222">httppv1</text></g><g><text text-anchor="middle" x="300.5" y="335.05" font-family="Arial" font-size="13" stroke="none" stroke-width="0" fill="#222222">httppv2</text></g><g><text text-anchor="middle" x="423.8333333333333" y="335.05" font-family="Arial" font-size="13" stroke="none" stroke-width="0" fill="#222222">picohttpparser</text></g><g><text text-anchor="end" x="102.66666666666666" y="320.05" font-family="Arial" font-size="13" stroke="none" stroke-width="0" fill="#444444">0</text></g><g><text text-anchor="end" x="102.66666666666666" y="272.05" font-family="Arial" font-size="13" stroke="none" stroke-width="0" fill="#444444">2,000,000</text></g><g><text text-anchor="end" x="102.66666666666666" y="224.05" font-family="Arial" font-size="13" stroke="none" stroke-width="0" fill="#444444">4,000,000</text></g><g><text text-anchor="end" x="102.66666666666666" y="176.05" font-family="Arial" font-size="13" stroke="none" stroke-width="0" fill="#444444">6,000,000</text></g><g><text text-anchor="end" x="102.66666666666666" y="128.05" font-family="Arial" font-size="13" stroke="none" stroke-width="0" fill="#444444">8,000,000</text></g><g><text text-anchor="end" x="102.66666666666666" y="80.05" font-family="Arial" font-size="13" stroke="none" stroke-width="0" fill="#444444">10,000,000</text></g></g></g><g><g><text text-anchor="middle" x="300.5" y="368.05" font-family="Arial" font-size="13" font-style="italic" stroke="none" stroke-width="0" fill="#222222">Parsers</text><rect x="115" y="357" width="371" height="13" stroke="none" stroke-width="0" fill-opacity="0" fill="#ffffff"></rect></g><g><text text-anchor="middle" x="23.383333333333336" y="195.5" font-family="Arial" font-size="13" font-style="italic" transform="rotate(-90 23.383333333333336 195.5)" stroke="none" stroke-width="0" fill="#222222">Requests</text><path d="M12.333333333333327,316L12.333333333333341,75L25.333333333333343,75L25.33333333333333,316Z" stroke="none" stroke-width="0" fill-opacity="0" fill="#ffffff"></path></g></g><g></g></svg>